# Blender 3.1.0
# www.blender.org
mtllib scene.mtl
o cube11
v 1.118600 -7.420671 -3.127807
v 1.118600 -7.420670 -15.990561
v 13.981354 -7.420671 -3.127807
v 1.118600 -3.228118 -3.127806
v 13.981354 -3.228118 -3.127806
v 13.981354 -3.228116 -15.990561
v 13.981354 -7.420670 -15.990561
v 1.118600 -3.228116 -15.990561
vn -0.0000 -1.0000 -0.0000
vn -0.0000 -0.0000 1.0000
vn -0.0000 -0.0000 -1.0000
vn -1.0000 -0.0000 -0.0000
vn 1.0000 -0.0000 -0.0000
vn -0.0000 1.0000 -0.0000
s 1
usemtl default
f 1//1 2//1 3//1
f 4//2 3//2 5//2
f 2//3 6//3 7//3
f 8//4 2//4 4//4
f 1//2 3//2 4//2
f 3//1 2//1 7//1
f 3//5 6//5 5//5
f 8//3 6//3 2//3
f 4//4 2//4 1//4
f 4//6 6//6 8//6
f 7//5 6//5 3//5
f 5//6 6//6 4//6
o cube10
v 5.546433 1.879245 10.163513
v 5.546433 -4.158128 -9.858498
v 9.738986 1.879245 10.163513
v 5.546433 2.890782 9.858498
v 9.738986 2.890782 9.858498
v 9.738986 -3.146590 -10.163514
v 9.738986 -4.158128 -9.858498
v 5.546433 -3.146590 -10.163514
vn -0.0000 -0.9574 0.2887
vn -0.0000 0.2887 0.9574
vn -0.0000 -0.2887 -0.9574
vn -1.0000 -0.0000 -0.0000
vn 1.0000 -0.0000 -0.0000
vn -0.0000 0.9574 -0.2887
s 1
usemtl default
f 9//7 10//7 11//7
f 12//8 11//8 13//8
f 10//9 14//9 15//9
f 16//10 10//10 12//10
f 9//8 11//8 12//8
f 11//7 10//7 15//7
f 11//11 14//11 13//11
f 16//9 14//9 10//9
f 12//10 10//10 9//10
f 12//12 14//12 16//12
f 15//11 14//11 11//11
f 13//12 14//12 12//12
o cube9
v -13.573239 -2.096278 7.505676
v -13.573239 -2.096277 3.313123
v 5.536418 -2.096278 7.505676
v -13.573239 2.096275 7.505677
v 5.536418 2.096275 7.505677
v 5.536418 2.096276 3.313123
v 5.536418 -2.096277 3.313123
v -13.573239 2.096276 3.313123
vn -0.0000 -1.0000 -0.0000
vn -0.0000 -0.0000 1.0000
vn -0.0000 -0.0000 -1.0000
vn -1.0000 -0.0000 -0.0000
vn 1.0000 -0.0000 -0.0000
vn -0.0000 1.0000 -0.0000
s 1
usemtl default
f 17//13 18//13 19//13
f 20//14 19//14 21//14
f 18//15 22//15 23//15
f 24//16 18//16 20//16
f 17//14 19//14 20//14
f 19//13 18//13 23//13
f 19//17 22//17 21//17
f 24//15 22//15 18//15
f 20//16 18//16 17//16
f 20//18 22//18 24//18
f 23//17 22//17 19//17
f 21//18 22//18 20//18
o cube6_copy8
v -5.088519 -2.015604 -8.192705
v -5.088519 -2.015604 -8.947365
v 2.847482 -2.015604 -8.192705
v -5.088519 -1.260944 -8.192705
v 2.847482 -1.260944 -8.192705
v 2.847482 -1.260944 -8.947365
v 2.847482 -2.015604 -8.947365
v -5.088519 -1.260944 -8.947365
vn -0.0000 -1.0000 -0.0000
vn -0.0000 -0.0000 1.0000
vn -0.0000 -0.0000 -1.0000
vn -1.0000 -0.0000 -0.0000
vn 1.0000 -0.0000 -0.0000
vn -0.0000 1.0000 -0.0000
s 1
usemtl default4
f 25//19 26//19 27//19
f 28//20 27//20 29//20
f 26//21 30//21 31//21
f 32//22 26//22 28//22
f 25//20 27//20 28//20
f 27//19 26//19 31//19
f 27//23 30//23 29//23
f 32//21 30//21 26//21
f 28//22 26//22 25//22
f 28//24 30//24 32//24
f 31//23 30//23 27//23
f 29//24 30//24 28//24
o cube6_copy7
v -5.088519 -2.293802 -7.389023
v -5.088519 -2.293802 -8.143682
v 2.847482 -2.293802 -7.389023
v -5.088519 -1.539142 -7.389023
v 2.847482 -1.539142 -7.389023
v 2.847482 -1.539142 -8.143682
v 2.847482 -2.293802 -8.143682
v -5.088519 -1.539142 -8.143682
vn -0.0000 -1.0000 -0.0000
vn -0.0000 -0.0000 1.0000
vn -0.0000 -0.0000 -1.0000
vn -1.0000 -0.0000 -0.0000
vn 1.0000 -0.0000 -0.0000
vn -0.0000 1.0000 -0.0000
s 1
usemtl default3
f 33//25 34//25 35//25
f 36//26 35//26 37//26
f 34//27 38//27 39//27
f 40//28 34//28 36//28
f 33//26 35//26 36//26
f 35//25 34//25 39//25
f 35//29 38//29 37//29
f 40//27 38//27 34//27
f 36//28 34//28 33//28
f 36//30 38//30 40//30
f 39//29 38//29 35//29
f 37//30 38//30 36//30
o cube6
v -5.088519 -2.502450 -6.593069
v -5.088519 -2.502450 -7.347729
v 2.847482 -2.502450 -6.593069
v -5.088519 -1.747791 -6.593069
v 2.847482 -1.747791 -6.593069
v 2.847482 -1.747791 -7.347729
v 2.847482 -2.502450 -7.347729
v -5.088519 -1.747791 -7.347729
vn -0.0000 -1.0000 -0.0000
vn -0.0000 -0.0000 1.0000
vn -0.0000 -0.0000 -1.0000
vn -1.0000 -0.0000 -0.0000
vn 1.0000 -0.0000 -0.0000
vn -0.0000 1.0000 -0.0000
s 1
usemtl default
f 41//31 42//31 43//31
f 44//32 43//32 45//32
f 42//33 46//33 47//33
f 48//34 42//34 44//34
f 41//32 43//32 44//32
f 43//31 42//31 47//31
f 43//35 46//35 45//35
f 48//33 46//33 42//33
f 44//34 42//34 41//34
f 44//36 46//36 48//36
f 47//35 46//35 43//35
f 45//36 46//36 44//36
o grid5
v -15.523627 -2.551865 -17.114933
v -15.523627 -2.971120 -17.114933
v -15.523627 -2.551868 3.847831
v 5.439139 -2.551865 -17.114933
v 5.439139 -2.971123 3.847831
v 5.439139 -2.971120 -17.114933
v 5.439139 -2.551868 3.847831
v -15.523627 -2.971123 3.847831
vn -1.0000 -0.0000 -0.0000
vn 1.0000 -0.0000 -0.0000
vn -0.0000 1.0000 -0.0000
vn -0.0000 -1.0000 -0.0000
vn -0.0000 -0.0000 -1.0000
vn -0.0000 -0.0000 1.0000
s 1
usemtl default2
f 49//37 50//37 51//37
f 52//38 53//38 54//38
f 51//39 55//39 52//39
f 50//40 53//40 56//40
f 52//41 50//41 49//41
f 55//38 53//38 52//38
f 50//37 56//37 51//37
f 54//40 53//40 50//40
f 49//39 51//39 52//39
f 52//41 54//41 50//41
f 56//42 53//42 51//42
f 51//42 53//42 55//42
o cube3
v -9.145822 -2.528574 -8.962281
v -7.460416 -2.528574 -8.962281
v -9.145822 1.663979 -8.962281
v -9.145822 1.663980 -10.647687
v -9.145822 -2.528574 -10.647687
v -7.460416 1.663980 -10.647687
v -7.460416 1.663979 -8.962281
v -7.460416 -2.528574 -10.647687
vn -0.0000 -0.0000 1.0000
vn -1.0000 -0.0000 -0.0000
vn 1.0000 -0.0000 -0.0000
vn -0.0000 -0.0000 -1.0000
vn -0.0000 1.0000 -0.0000
vn -0.0000 -1.0000 -0.0000
s 1
usemtl default4
f 57//43 58//43 59//43
f 59//44 60//44 61//44
f 58//45 62//45 63//45
f 62//46 64//46 61//46
f 59//43 58//43 63//43
f 59//44 61//44 57//44
f 59//47 62//47 60//47
f 58//45 64//45 62//45
f 57//48 61//48 58//48
f 63//47 62//47 59//47
f 60//46 62//46 61//46
f 61//48 64//48 58//48
o cube2
v -2.096277 -2.539753 -14.774558
v 2.096277 -2.539753 -14.774558
v -2.096277 1.652800 -14.774558
v -2.096277 1.652801 -18.967113
v -2.096277 -2.539753 -18.967113
v 2.096277 1.652801 -18.967113
v 2.096277 1.652800 -14.774558
v 2.096277 -2.539753 -18.967113
vn -0.0000 -0.0000 1.0000
vn -1.0000 -0.0000 -0.0000
vn 1.0000 -0.0000 -0.0000
vn -0.0000 -0.0000 -1.0000
vn -0.0000 1.0000 -0.0000
vn -0.0000 -1.0000 -0.0000
s 1
usemtl default3
f 65//49 66//49 67//49
f 67//50 68//50 69//50
f 66//51 70//51 71//51
f 70//52 72//52 69//52
f 67//49 66//49 71//49
f 67//50 69//50 65//50
f 67//53 70//53 68//53
f 66//51 72//51 70//51
f 65//54 69//54 66//54
f 71//53 70//53 67//53
f 68//52 70//52 69//52
f 69//54 72//54 66//54
o cube1
v -14.647849 -2.533234 2.096276
v -10.455296 -2.533234 2.096276
v -14.647849 8.182932 2.096278
v -14.647849 8.182933 -2.096275
v -14.647849 -2.533234 -2.096277
v -10.455296 8.182933 -2.096275
v -10.455296 8.182932 2.096278
v -10.455296 -2.533234 -2.096277
vn -0.0000 -0.0000 1.0000
vn -1.0000 -0.0000 -0.0000
vn 1.0000 -0.0000 -0.0000
vn -0.0000 -0.0000 -1.0000
vn -0.0000 1.0000 -0.0000
vn -0.0000 -1.0000 -0.0000
s 1
usemtl default4
f 73//55 74//55 75//55
f 75//56 76//56 77//56
f 74//57 78//57 79//57
f 78//58 80//58 77//58
f 75//55 74//55 79//55
f 75//56 77//56 73//56
f 75//59 78//59 76//59
f 74//57 80//57 78//57
f 73//60 77//60 74//60
f 79//59 78//59 75//59
f 76//58 78//58 77//58
f 77//60 80//60 74//60
o cube5
v -13.324336 -2.096276 -4.858666
v -13.324336 -2.096275 -9.051219
v -9.131783 -2.096276 -4.858666
v -13.324336 2.096277 -4.858665
v -9.131783 2.096278 -9.051219
v -13.324336 2.096278 -9.051219
v -9.131783 2.096277 -4.858665
v -9.131783 -2.096275 -9.051219
vn -0.0000 -1.0000 -0.0000
vn -0.0000 1.0000 -0.0000
vn 1.0000 -0.0000 -0.0000
vn -0.0000 -0.0000 -1.0000
vn -0.0000 -0.0000 1.0000
vn -1.0000 -0.0000 -0.0000
s 1
usemtl default
f 81//61 82//61 83//61
f 84//62 85//62 86//62
f 83//63 85//63 87//63
f 85//64 88//64 82//64
f 81//65 83//65 84//65
f 87//62 85//62 84//62
f 82//61 88//61 83//61
f 86//64 85//64 82//64
f 84//65 83//65 87//65
f 84//66 82//66 81//66
f 83//63 88//63 85//63
f 84//66 86//66 82//66
